<?xml version="1.0" encoding="utf-8"?>
<!-- Generator: Adobe Illustrator 25.2.1, SVG Export Plug-In . SVG Version: 6.00 Build 0)  -->
<svg version="1.1" id="Ebene_1" xmlns="http://www.w3.org/2000/svg" xmlns:xlink="http://www.w3.org/1999/xlink" x="0px" y="0px"
	 viewBox="0 0 147.7 13.9" style="enable-background:new 0 0 147.7 13.9;" xml:space="preserve">
<style type="text/css">
	.st0{fill:#878789;}
	.st1{fill:#00305D;}
</style>
<g>
	<path class="st0" d="M5.1,0.7h1.4c3.2,0,4.3,2.9,4.3,6.4c0,3.9-1.4,6-4.2,6c-1.3,0-1.6-0.2-1.6-1.4V0.7z M0,13.8h7.4
		c4.4,0,7-2.8,7-6.8c0-4.3-3-7-7.3-7H0v0.4c1.4,0,1.9,0.3,1.9,1.8v9.4c0,1.5-0.4,1.9-1.9,1.8V13.8z"/>
	<path class="st0" d="M139.2,0.7h0.9c2,0,2.8,1.1,2.8,3c0,1.5-0.6,3-2.6,3h-1.1V0.7z M139.2,7.5h0.6l3.8,6.3h4.1v-0.4
		c-0.6,0-1.1-0.5-1.9-1.7l-2.7-4.5c1.9-0.4,3-1.7,3-3.4c0-2.2-1.8-3.8-4.7-3.8h-7.4v0.4c1.5-0.1,1.9,0.4,1.9,1.6v9.6
		c0,1.5-0.4,1.9-1.9,1.8v0.4h7.2v-0.4c-1.6,0.1-2-0.2-2-1.8V7.5z"/>
	<path class="st0" d="M127.9,2h1.7c1.4,0,1.9,0.9,2.2,2h0.2V1.5h-7.4v0.2c1-0.1,1.3,0.3,1.3,1.1v6.1c0,0.8-0.2,1.2-1.3,1.2v0.2h7.6
		l0.4-2.7h-0.2c-0.5,1.5-1.4,2.2-2.8,2.2h-0.8c-0.7,0-0.9-0.2-0.9-1V6h0.4c0.9,0,1.4,0.6,1.5,2h0.2V3.6h-0.2c-0.2,1.6-0.7,2-1.6,2
		h-0.3V2z M117.5,1.5h-2.9v0.2c0.3,0,0.6,0.2,1,0.6l0.3,0.3V9c0,0.7-0.4,1.1-1.2,1.1v0.2h3.1v-0.2c-1.1,0-1.4-0.4-1.4-1.1V3.1
		l6.5,7.3h0.2V2.9c0-0.8,0.4-1.2,1.1-1.2V1.5h-2.9v0.2c1-0.1,1.3,0.4,1.3,1.2v4.3L117.5,1.5z M114.1,1.5h-7.8v2.3h0.2
		c0.1-0.9,0.7-1.8,1.6-1.8h1.1v6.9c0,1-0.2,1.2-1.3,1.2v0.2h4.6v-0.2c-1,0-1.3-0.1-1.3-1.2V2h1c1.1,0,1.6,0.8,1.7,1.8h0.2V1.5z
		 M100.7,2h0.6c1.3,0,1.8,0.7,1.8,1.9c0,1-0.4,1.9-1.7,1.9h-0.7V2z M100.7,6.3h0.4l2.4,4h2.6v-0.2c-0.4,0-0.7-0.3-1.2-1.1l-1.7-2.9
		c1.2-0.3,1.9-1.1,1.9-2.2c0-1.4-1.2-2.4-3-2.4h-4.7v0.2c0.9-0.1,1.2,0.3,1.2,1v6.1c0,0.9-0.2,1.2-1.2,1.2v0.2h4.6v-0.2
		c-1,0-1.3-0.1-1.3-1.2V6.3z M93.1,7.3h-2.4l1.2-2.9L93.1,7.3z M93.3,7.8l0.6,1.4c0.1,0.2,0.1,0.3,0.1,0.4c0,0.3-0.2,0.4-1,0.4v0.2
		H97v-0.2c-0.5,0-0.9-0.3-1.3-1.3l-3-7.4h-0.1l-2.9,7c-0.5,1.1-0.9,1.6-1.5,1.7v0.2H91v-0.2c-0.6,0-1.1-0.1-1.1-0.7
		c0-0.1,0.1-0.3,0.2-0.6l0.4-1H93.3z M84.4,2h0.7c1.5,0,1.8,0.8,1.8,2c0,1.2-0.6,1.9-1.7,1.9h-0.8V2z M84.4,6.3h1.2
		c2.6,0,3.5-1.3,3.5-2.4c0-1.5-1.6-2.4-3.3-2.4h-4.7v0.2C82,1.7,82.4,2,82.4,2.8v6.1c0,1-0.3,1.2-1.3,1.2v0.2h4.5v-0.2
		c-0.9,0-1.2-0.2-1.2-1.2V6.3z M70.8,3.8c-0.2-0.4-0.3-0.9-0.3-1.3c0-0.4,0.2-0.7,0.6-0.7c0.7,0,1,1.1,1,1.6c0,0.5-0.3,0.9-1,1.1
		L70.8,3.8z M69.6,5.7C70,6.6,71,8.2,71.8,9.1c-0.3,0.2-0.7,0.4-1,0.4c-0.9,0-2.1-1.8-2.1-2.7C68.7,6.4,69,6,69.6,5.7 M75.9,5.1
		h-2.6v0.2C73.7,5.3,74,5.6,74,6c0,0.5-0.2,1-0.8,1.8C72.6,7,71.8,5.9,71.3,5c1.7-0.6,2.1-1.4,2.1-2.1c0-0.9-0.7-1.6-1.8-1.6
		c-1.4,0-2.4,1.1-2.4,2.5c0,0.5,0.1,0.9,0.3,1.5c-1.3,0.6-2.4,1.5-2.4,2.9c0,1.3,1.1,2.3,2.5,2.3c0.8,0,1.7-0.3,2.6-1
		c0.9,0.9,1.3,1,1.8,1c1,0,1.7-0.9,1.9-1.4l-0.2-0.1c-0.1,0.2-0.3,0.3-0.6,0.3c-0.4,0-0.7-0.2-1.6-1.1c0.5-0.6,1-2,1.6-2.5
		c0.2-0.2,0.4-0.3,0.8-0.3V5.1z M62.2,7.3h-0.2c-0.4,1.5-1,2.5-2.7,2.5h-0.8c-0.6,0-0.8-0.2-0.8-0.7V2.9c0-1.1,0.3-1.2,1.5-1.2V1.5
		h-5v0.2c1.1,0,1.4,0.1,1.4,1.2v6c0,0.9-0.2,1.2-1.4,1.2v0.2h7.7L62.2,7.3z M52.7,1.3h-0.3c-0.1,0.4-0.3,0.6-0.6,0.6
		c-0.4,0-1.3-0.6-2.6-0.6c-2.6,0-4.6,2.1-4.6,4.8c0,2.4,1.8,4.4,4.8,4.4c1.2,0,2.5-0.3,3.3-0.7V7.6c0-0.6,0.3-0.8,1-0.8V6.6h-4.2
		v0.2c0.8,0,1.1,0.2,1.1,0.8v2.1c-0.5,0.2-0.8,0.3-1.2,0.3c-0.7,0-1.2-0.3-1.7-0.7c-0.6-0.6-0.9-1.7-0.9-3.2c0-2.7,0.9-4.3,2.6-4.3
		c1.4,0,2.5,0.9,3,2.5h0.3V1.3z M43.8,10.1c-0.9,0-1.2-0.2-1.2-1.2v-6c0-1.1,0.3-1.2,1.2-1.2V1.5h-4.5v0.2c0.9,0,1.2,0.1,1.2,1.2v6
		c0,1-0.3,1.2-1.2,1.2v0.2h4.5V10.1z M33.4,2h0.6c1.3,0,1.8,0.7,1.8,1.9c0,1-0.4,1.9-1.7,1.9h-0.7V2z M33.4,6.3h0.4l2.4,4h2.6v-0.2
		c-0.4,0-0.7-0.3-1.2-1.1l-1.7-2.9c1.2-0.3,1.9-1.1,1.9-2.2c0-1.4-1.2-2.4-3-2.4h-4.7v0.2c0.9-0.1,1.2,0.3,1.2,1v6.1
		c0,0.9-0.2,1.2-1.2,1.2v0.2h4.6v-0.2c-1,0-1.3-0.1-1.3-1.2V6.3z M24.2,2h0.6c1.3,0,1.8,0.7,1.8,1.9c0,1-0.4,1.9-1.7,1.9h-0.7V2z
		 M24.2,6.3h0.4l2.4,4h2.6v-0.2c-0.4,0-0.7-0.3-1.2-1.1l-1.7-2.9c1.2-0.3,1.9-1.1,1.9-2.2c0-1.4-1.2-2.4-3-2.4h-4.7v0.2
		c0.9-0.1,1.2,0.3,1.2,1v6.1c0,0.9-0.2,1.2-1.2,1.2v0.2h4.6v-0.2c-1,0-1.3-0.1-1.3-1.2V6.3z M20.4,10.1c-0.9,0-1.2-0.2-1.2-1.2v-6
		c0-1.1,0.3-1.2,1.2-1.2V1.5h-4.5v0.2c0.9,0,1.2,0.1,1.2,1.2v6c0,1-0.3,1.2-1.2,1.2v0.2h4.5V10.1z"/>
	<rect x="16" y="12" class="st1" width="116.6" height="1.8"/>
</g>
</svg>
